0
SECTION
2
HEADER
9
$INSUNITS
70
4
9
$ACADVER
1
AC1014
9
$HANDSEED
5
FFFF
0
ENDSEC
0
SECTION
2
TABLES
0
TABLE
2
VPORT
5
8
100
AcDbSymbolTable
0
ENDTAB
0
TABLE
2
LTYPE
5
5
100
AcDbSymbolTable
0
LTYPE
5
14
100
AcDbSymbolTableRecord
100
AcDbLinetypeTableRecord
2
BYBLOCK
70
0
0
LTYPE
5
15
100
AcDbSymbolTableRecord
100
AcDbLinetypeTableRecord
2
BYLAYER
70
0
0
ENDTAB
0
TABLE
2
LAYER
5
2
100
AcDbSymbolTable
70
2
0
LAYER
5
50
100
AcDbSymbolTableRecord
100
AcDbLayerTableRecord
2
0
70
0
6
CONTINUOUS
0
ENDTAB
0
TABLE
2
STYLE
5
3
100
AcDbSymbolTable
70
1
0
STYLE
5
11
100
AcDbSymbolTableRecord
100
AcDbTextStyleTableRecord
2
STANDARD
70
0
0
ENDTAB
0
TABLE
2
VIEW
5
6
100
AcDbSymbolTable
70
0
0
ENDTAB
0
TABLE
2
UCS
5
7
100
AcDbSymbolTable
70
0
0
ENDTAB
0
TABLE
2
APPID
5
9
100
AcDbSymbolTable
70
2
0
APPID
5
12
100
AcDbSymbolTableRecord
100
AcDbRegAppTableRecord
2
ACAD
70
0
0
ENDTAB
0
TABLE
2
DIMSTYLE
5
A
100
AcDbSymbolTable
70
1
0
ENDTAB
0
TABLE
2
BLOCK_RECORD
5
1
100
AcDbSymbolTable
70
1
0
BLOCK_RECORD
5
1F
100
AcDbSymbolTableRecord
100
AcDbBlockTableRecord
2
*MODEL_SPACE
0
BLOCK_RECORD
5
1B
100
AcDbSymbolTableRecord
100
AcDbBlockTableRecord
2
*PAPER_SPACE
0
ENDTAB
0
ENDSEC
0
SECTION
2
BLOCKS
0
BLOCK
5
20
100
AcDbEntity
100
AcDbBlockBegin
2
*MODEL_SPACE
0
ENDBLK
5
21
100
AcDbEntity
100
AcDbBlockEnd
0
BLOCK
5
1C
100
AcDbEntity
100
AcDbBlockBegin
2
*PAPER_SPACE
0
ENDBLK
5
1D
100
AcDbEntity
100
AcDbBlockEnd
0
ENDSEC
0
SECTION
2
ENTITIES
0
LWPOLYLINE
5
100
100
AcDbEntity
8
0
100
AcDbPolyline
90
4
70
1
43
0.0
10
-26.554545454545469
20
74.600000000000009
10
-26.554545454545469
20
77.800000000000011
10
-53.109090909090931
20
77.800000000000011
10
-53.109090909090931
20
74.600000000000009
0
LWPOLYLINE
5
101
100
AcDbEntity
8
0
100
AcDbPolyline
90
4
70
1
43
0.0
10
-79.6636363636364
20
74.600000000000009
10
-79.6636363636364
20
77.800000000000011
10
-106.21818181818185
20
77.800000000000011
10
-106.21818181818185
20
74.600000000000009
0
LWPOLYLINE
5
102
100
AcDbEntity
8
0
100
AcDbPolyline
90
4
70
1
43
0.0
10
-132.77272727272728
20
74.600000000000009
10
-132.77272727272728
20
77.800000000000011
10
-159.32727272727274
20
77.800000000000011
10
-159.32727272727274
20
74.600000000000009
0
LWPOLYLINE
5
103
100
AcDbEntity
8
0
100
AcDbPolyline
90
4
70
1
43
0.0
10
-185.8818181818182
20
74.600000000000009
10
-185.8818181818182
20
77.800000000000011
10
-212.43636363636367
20
77.800000000000011
10
-212.43636363636367
20
74.600000000000009
0
LWPOLYLINE
5
104
100
AcDbEntity
8
0
100
AcDbPolyline
90
4
70
1
43
0.0
10
-238.99090909090913
20
74.600000000000009
10
-238.99090909090913
20
77.800000000000011
10
-265.54545454545456
20
77.800000000000011
10
-265.54545454545456
20
74.600000000000009
0
LWPOLYLINE
5
105
100
AcDbEntity
8
0
100
AcDbPolyline
90
236
70
1
43
0.0
10
-6.4911111111111408
20
149.20000000000002
10
0
20
149.20000000000002
10
0
20
141.06666666666669
10
-3.2000000000000006
20
141.06666666666669
10
-3.2000000000000006
20
131.33333333333334
10
0
20
131.33333333333334
10
0
20
121.60000000000002
10
-3.2000000000000006
20
121.60000000000002
10
-3.2000000000000006
20
111.86666666666669
10
0
20
111.86666666666669
10
0
20
102.13333333333335
10
-3.2000000000000006
20
102.13333333333335
10
-3.2000000000000006
20
92.40000000000002
10
0
20
92.40000000000002
10
0
20
82.666666666666671
10
-3.2000000000000006
20
82.666666666666671
10
-3.2000000000000006
20
72.933333333333351
10
0
20
72.933333333333351
10
0
20
63.20000000000001
10
-3.2000000000000006
20
63.20000000000001
10
-3.2000000000000006
20
53.466666666666683
10
0
20
53.466666666666683
10
0
20
43.733333333333341
10
-3.2000000000000006
20
43.733333333333341
10
-3.2000000000000006
20
34.000000000000014
10
0
20
34.000000000000014
10
0
20
24.266666666666673
10
-3.2000000000000006
20
24.266666666666673
10
-3.2000000000000006
20
14.53333333333334
10
0
20
14.53333333333334
10
0
20
3.2000000000000028
10
-6.4911111111111408
20
3.2000000000000006
10
-6.4911111111111408
20
0
10
-12.982222222222251
20
0
10
-12.982222222222251
20
3.2000000000000006
10
-19.473333333333397
20
3.2000000000000006
10
-19.473333333333397
20
0
10
-25.964444444444506
20
0
10
-25.964444444444506
20
3.2000000000000006
10
-32.455555555555613
20
3.2000000000000006
10
-32.455555555555613
20
0
10
-38.946666666666722
20
0
10
-38.946666666666722
20
3.2000000000000006
10
-45.437777777777839
20
3.2000000000000006
10
-45.437777777777839
20
0
10
-51.928888888888949
20
0
10
-51.928888888888949
20
3.2000000000000006
10
-58.420000000000059
20
3.2000000000000006
10
-58.420000000000059
20
0
10
-64.911111111111168
20
0
10
-64.911111111111168
20
3.2000000000000006
10
-71.402222222222278
20
3.2000000000000006
10
-71.402222222222278
20
0
10
-77.893333333333388
20
0
10
-77.893333333333388
20
3.2000000000000006
10
-84.384444444444497
20
3.2000000000000006
10
-84.384444444444497
20
0
10
-90.875555555555607
20
0
10
-90.875555555555607
20
3.2000000000000006
10
-97.366666666666717
20
3.2000000000000006
10
-97.366666666666717
20
0
10
-103.85777777777783
20
0
10
-103.85777777777783
20
3.2000000000000006
10
-110.34888888888894
20
3.2000000000000006
10
-110.34888888888894
20
0
10
-116.84000000000005
20
0
10
-116.84000000000005
20
3.2000000000000006
10
-123.33111111111117
20
3.2000000000000006
10
-123.33111111111117
20
0
10
-129.82222222222228
20
0
10
-129.82222222222228
20
3.2000000000000006
10
-136.31333333333339
20
3.2000000000000006
10
-136.31333333333339
20
0
10
-142.8044444444445
20
0
10
-142.8044444444445
20
3.2000000000000006
10
-149.29555555555564
20
3.2000000000000006
10
-149.29555555555564
20
0
10
-155.78666666666675
20
0
10
-155.78666666666675
20
3.2000000000000006
10
-162.27777777777786
20
3.2000000000000006
10
-162.27777777777786
20
0
10
-168.76888888888897
20
0
10
-168.76888888888897
20
3.2000000000000006
10
-175.26000000000008
20
3.2000000000000006
10
-175.26000000000008
20
0
10
-181.75111111111119
20
0
10
-181.75111111111119
20
3.2000000000000006
10
-188.2422222222223
20
3.2000000000000006
10
-188.2422222222223
20
0
10
-194.73333333333341
20
0
10
-194.73333333333341
20
3.2000000000000006
10
-201.22444444444454
20
3.2000000000000006
10
-201.22444444444454
20
0
10
-207.71555555555565
20
0
10
-207.71555555555565
20
3.2000000000000006
10
-214.20666666666676
20
3.2000000000000006
10
-214.20666666666676
20
0
10
-220.69777777777787
20
0
10
-220.69777777777787
20
3.2000000000000006
10
-227.18888888888898
20
3.2000000000000006
10
-227.18888888888898
20
0
10
-233.68000000000009
20
0
10
-233.68000000000009
20
3.2000000000000006
10
-240.1711111111112
20
3.2000000000000006
10
-240.1711111111112
20
0
10
-246.66222222222231
20
0
10
-246.66222222222231
20
3.2000000000000006
10
-253.15333333333342
20
3.2000000000000006
10
-253.15333333333342
20
0
10
-259.6444444444445
20
0
10
-259.6444444444445
20
3.2000000000000006
10
-266.13555555555564
20
3.2000000000000006
10
-266.13555555555564
20
0
10
-272.62666666666678
20
0
10
-272.62666666666678
20
3.2000000000000006
10
-279.11777777777786
20
3.2000000000000006
10
-279.11777777777786
20
0
10
-285.60888888888894
20
0
10
-285.60888888888894
20
3.2000000000000006
10
-292.10000000000002
20
3.2000000000000006
10
-292.10000000000002
20
14.53333333333334
10
-288.90000000000003
20
14.53333333333334
10
-288.90000000000003
20
24.266666666666673
10
-292.10000000000002
20
24.266666666666673
10
-292.10000000000002
20
34.000000000000014
10
-288.90000000000003
20
34.000000000000014
10
-288.90000000000003
20
43.733333333333341
10
-292.10000000000002
20
43.733333333333341
10
-292.10000000000002
20
53.466666666666683
10
-288.90000000000003
20
53.466666666666683
10
-288.90000000000003
20
63.20000000000001
10
-292.10000000000002
20
63.20000000000001
10
-292.10000000000002
20
72.933333333333351
10
-288.90000000000003
20
72.933333333333351
10
-288.90000000000003
20
82.666666666666671
10
-292.10000000000002
20
82.666666666666671
10
-292.10000000000002
20
92.40000000000002
10
-288.90000000000003
20
92.40000000000002
10
-288.90000000000003
20
102.13333333333335
10
-292.10000000000002
20
102.13333333333335
10
-292.10000000000002
20
111.86666666666669
10
-288.90000000000003
20
111.86666666666669
10
-288.90000000000003
20
121.60000000000002
10
-292.10000000000002
20
121.60000000000002
10
-292.10000000000002
20
131.33333333333334
10
-288.90000000000003
20
131.33333333333334
10
-288.90000000000003
20
141.06666666666669
10
-292.10000000000002
20
141.06666666666669
10
-292.10000000000002
20
149.20000000000002
10
-285.60888888888894
20
149.20000000000002
10
-285.60888888888894
20
152.40000000000003
10
-279.11777777777786
20
152.40000000000003
10
-279.11777777777786
20
149.20000000000002
10
-272.62666666666678
20
149.20000000000002
10
-272.62666666666678
20
152.40000000000003
10
-266.13555555555564
20
152.40000000000003
10
-266.13555555555564
20
149.20000000000002
10
-259.6444444444445
20
149.20000000000002
10
-259.6444444444445
20
152.40000000000003
10
-253.15333333333342
20
152.40000000000003
10
-253.15333333333342
20
149.20000000000002
10
-246.66222222222231
20
149.20000000000002
10
-246.66222222222231
20
152.40000000000003
10
-240.1711111111112
20
152.40000000000003
10
-240.1711111111112
20
149.20000000000002
10
-233.68000000000009
20
149.20000000000002
10
-233.68000000000009
20
152.40000000000003
10
-227.18888888888898
20
152.40000000000003
10
-227.18888888888898
20
149.20000000000002
10
-220.69777777777787
20
149.20000000000002
10
-220.69777777777787
20
152.40000000000003
10
-214.20666666666676
20
152.40000000000003
10
-214.20666666666676
20
149.20000000000002
10
-207.71555555555565
20
149.20000000000002
10
-207.71555555555565
20
152.40000000000003
10
-201.22444444444454
20
152.40000000000003
10
-201.22444444444454
20
149.20000000000002
10
-194.73333333333341
20
149.20000000000002
10
-194.73333333333341
20
152.40000000000003
10
-188.2422222222223
20
152.40000000000003
10
-188.2422222222223
20
149.20000000000002
10
-181.75111111111119
20
149.20000000000002
10
-181.75111111111119
20
152.40000000000003
10
-175.26000000000008
20
152.40000000000003
10
-175.26000000000008
20
149.20000000000002
10
-168.76888888888897
20
149.20000000000002
10
-168.76888888888897
20
152.40000000000003
10
-162.27777777777786
20
152.40000000000003
10
-162.27777777777786
20
149.20000000000002
10
-155.78666666666675
20
149.20000000000002
10
-155.78666666666675
20
152.40000000000003
10
-149.29555555555564
20
152.40000000000003
10
-149.29555555555564
20
149.20000000000002
10
-142.8044444444445
20
149.20000000000002
10
-142.8044444444445
20
152.40000000000003
10
-136.31333333333339
20
152.40000000000003
10
-136.31333333333339
20
149.20000000000002
10
-129.82222222222228
20
149.20000000000002
10
-129.82222222222228
20
152.40000000000003
10
-123.33111111111117
20
152.40000000000003
10
-123.33111111111117
20
149.20000000000002
10
-116.84000000000005
20
149.20000000000002
10
-116.84000000000005
20
152.40000000000003
10
-110.34888888888894
20
152.40000000000003
10
-110.34888888888894
20
149.20000000000002
10
-103.85777777777783
20
149.20000000000002
10
-103.85777777777783
20
152.40000000000003
10
-97.366666666666717
20
152.40000000000003
10
-97.366666666666717
20
149.20000000000002
10
-90.875555555555607
20
149.20000000000002
10
-90.875555555555607
20
152.40000000000003
10
-84.384444444444497
20
152.40000000000003
10
-84.384444444444497
20
149.20000000000002
10
-77.893333333333388
20
149.20000000000002
10
-77.893333333333388
20
152.40000000000003
10
-71.402222222222278
20
152.40000000000003
10
-71.402222222222278
20
149.20000000000002
10
-64.911111111111168
20
149.20000000000002
10
-64.911111111111168
20
152.40000000000003
10
-58.420000000000059
20
152.40000000000003
10
-58.420000000000059
20
149.20000000000002
10
-51.928888888888949
20
149.20000000000002
10
-51.928888888888949
20
152.40000000000003
10
-45.437777777777839
20
152.40000000000003
10
-45.437777777777839
20
149.20000000000002
10
-38.946666666666722
20
149.20000000000002
10
-38.946666666666722
20
152.40000000000003
10
-32.455555555555613
20
152.40000000000003
10
-32.455555555555613
20
149.20000000000002
10
-25.964444444444506
20
149.20000000000002
10
-25.964444444444506
20
152.40000000000003
10
-19.473333333333397
20
152.40000000000003
10
-19.473333333333397
20
149.20000000000002
10
-12.982222222222251
20
149.20000000000002
10
-12.982222222222251
20
152.40000000000003
10
-6.4911111111111408
20
152.40000000000003
0
ENDSEC
0
SECTION
2
OBJECTS
0
DICTIONARY
5
C
100
AcDbDictionary
3
ACAD_GROUP
350
D
3
ACAD_MLINESTYLE
350
17
0
DICTIONARY
5
D
100
AcDbDictionary
0
DICTIONARY
5
1A
330
C
100
AcDbDictionary
0
DICTIONARY
5
17
100
AcDbDictionary
0
ENDSEC
0
EOF
