0
SECTION
2
HEADER
9
$INSUNITS
70
4
9
$ACADVER
1
AC1014
9
$HANDSEED
5
FFFF
0
ENDSEC
0
SECTION
2
TABLES
0
TABLE
2
VPORT
5
8
100
AcDbSymbolTable
0
ENDTAB
0
TABLE
2
LTYPE
5
5
100
AcDbSymbolTable
0
LTYPE
5
14
100
AcDbSymbolTableRecord
100
AcDbLinetypeTableRecord
2
BYBLOCK
70
0
0
LTYPE
5
15
100
AcDbSymbolTableRecord
100
AcDbLinetypeTableRecord
2
BYLAYER
70
0
0
ENDTAB
0
TABLE
2
LAYER
5
2
100
AcDbSymbolTable
70
2
0
LAYER
5
50
100
AcDbSymbolTableRecord
100
AcDbLayerTableRecord
2
0
70
0
6
CONTINUOUS
0
ENDTAB
0
TABLE
2
STYLE
5
3
100
AcDbSymbolTable
70
1
0
STYLE
5
11
100
AcDbSymbolTableRecord
100
AcDbTextStyleTableRecord
2
STANDARD
70
0
0
ENDTAB
0
TABLE
2
VIEW
5
6
100
AcDbSymbolTable
70
0
0
ENDTAB
0
TABLE
2
UCS
5
7
100
AcDbSymbolTable
70
0
0
ENDTAB
0
TABLE
2
APPID
5
9
100
AcDbSymbolTable
70
2
0
APPID
5
12
100
AcDbSymbolTableRecord
100
AcDbRegAppTableRecord
2
ACAD
70
0
0
ENDTAB
0
TABLE
2
DIMSTYLE
5
A
100
AcDbSymbolTable
70
1
0
ENDTAB
0
TABLE
2
BLOCK_RECORD
5
1
100
AcDbSymbolTable
70
1
0
BLOCK_RECORD
5
1F
100
AcDbSymbolTableRecord
100
AcDbBlockTableRecord
2
*MODEL_SPACE
0
BLOCK_RECORD
5
1B
100
AcDbSymbolTableRecord
100
AcDbBlockTableRecord
2
*PAPER_SPACE
0
ENDTAB
0
ENDSEC
0
SECTION
2
BLOCKS
0
BLOCK
5
20
100
AcDbEntity
100
AcDbBlockBegin
2
*MODEL_SPACE
0
ENDBLK
5
21
100
AcDbEntity
100
AcDbBlockEnd
0
BLOCK
5
1C
100
AcDbEntity
100
AcDbBlockBegin
2
*PAPER_SPACE
0
ENDBLK
5
1D
100
AcDbEntity
100
AcDbBlockEnd
0
ENDSEC
0
SECTION
2
ENTITIES
0
LWPOLYLINE
5
100
100
AcDbEntity
8
0
100
AcDbPolyline
90
4
70
1
43
0.0
10
-61.685714285714319
20
74.600000000000009
10
-30.842857142857156
20
74.600000000000009
10
-30.842857142857156
20
77.800000000000011
10
-61.685714285714319
20
77.800000000000011
0
LWPOLYLINE
5
101
100
AcDbEntity
8
0
100
AcDbPolyline
90
4
70
1
43
0.0
10
-123.37142857142862
20
74.600000000000009
10
-92.528571428571453
20
74.600000000000009
10
-92.528571428571453
20
77.800000000000011
10
-123.37142857142862
20
77.800000000000011
0
LWPOLYLINE
5
102
100
AcDbEntity
8
0
100
AcDbPolyline
90
4
70
1
43
0.0
10
-185.05714285714291
20
74.600000000000009
10
-154.21428571428575
20
74.600000000000009
10
-154.21428571428575
20
77.800000000000011
10
-185.05714285714291
20
77.800000000000011
0
LWPOLYLINE
5
103
100
AcDbEntity
8
0
100
AcDbPolyline
90
106
70
1
43
0.0
10
-12.565608465608449
20
149.20000000000002
10
-3.2000000000000006
20
149.20000000000002
10
-3.2000000000000006
20
87.40000000000002
10
0
20
87.40000000000002
10
0
20
3.2000000000000006
10
-12.565608465608449
20
3.2000000000000006
10
-12.565608465608449
20
0
10
-22.846560846560848
20
0
10
-22.846560846560848
20
3.2000000000000006
10
-35.412169312169297
20
3.2000000000000006
10
-35.412169312169297
20
0
10
-45.693121693121697
20
0
10
-45.693121693121697
20
3.2000000000000006
10
-58.258730158730145
20
3.2000000000000006
10
-58.258730158730145
20
0
10
-68.539682539682545
20
0
10
-68.539682539682545
20
3.2000000000000006
10
-81.105291005290994
20
3.2000000000000006
10
-81.105291005290994
20
0
10
-91.386243386243393
20
0
10
-91.386243386243393
20
3.2000000000000006
10
-103.95185185185184
20
3.2000000000000006
10
-103.95185185185184
20
0
10
-114.23280423280424
20
0
10
-114.23280423280424
20
3.2000000000000006
10
-126.79841269841269
20
3.2000000000000006
10
-126.79841269841269
20
0
10
-137.07936507936509
20
0
10
-137.07936507936509
20
3.2000000000000006
10
-149.64497354497354
20
3.2000000000000006
10
-149.64497354497354
20
0
10
-159.92592592592592
20
0
10
-159.92592592592592
20
3.2000000000000006
10
-172.4915343915344
20
3.2000000000000006
10
-172.4915343915344
20
0
10
-182.77248677248679
20
0
10
-182.77248677248679
20
3.2000000000000006
10
-195.33809523809524
20
3.2000000000000006
10
-195.33809523809524
20
0
10
-205.61904761904765
20
0
10
-205.61904761904765
20
3.2000000000000006
10
-212.70000000000005
20
3.2000000000000028
10
-212.70000000000005
20
14.53333333333334
10
-215.90000000000003
20
14.53333333333334
10
-215.90000000000003
20
24.266666666666673
10
-212.70000000000005
20
24.266666666666673
10
-212.70000000000005
20
34.000000000000014
10
-215.90000000000003
20
34.000000000000014
10
-215.90000000000003
20
43.733333333333341
10
-212.70000000000005
20
43.733333333333341
10
-212.70000000000005
20
53.466666666666683
10
-215.90000000000003
20
53.466666666666683
10
-215.90000000000003
20
63.20000000000001
10
-212.70000000000005
20
63.20000000000001
10
-212.70000000000005
20
72.933333333333351
10
-215.90000000000003
20
72.933333333333351
10
-215.90000000000003
20
82.666666666666671
10
-212.70000000000005
20
82.666666666666671
10
-212.70000000000005
20
92.40000000000002
10
-215.90000000000003
20
92.40000000000002
10
-215.90000000000003
20
102.13333333333335
10
-212.70000000000005
20
102.13333333333335
10
-212.70000000000005
20
111.86666666666669
10
-215.90000000000003
20
111.86666666666669
10
-215.90000000000003
20
121.60000000000002
10
-212.70000000000005
20
121.60000000000002
10
-212.70000000000005
20
131.33333333333334
10
-215.90000000000003
20
131.33333333333334
10
-215.90000000000003
20
141.06666666666669
10
-212.70000000000005
20
141.06666666666669
10
-212.70000000000005
20
149.20000000000002
10
-205.61904761904765
20
149.20000000000002
10
-205.61904761904765
20
152.40000000000003
10
-195.33809523809524
20
152.40000000000003
10
-195.33809523809524
20
149.20000000000002
10
-182.77248677248679
20
149.20000000000002
10
-182.77248677248679
20
152.40000000000003
10
-172.4915343915344
20
152.40000000000003
10
-172.4915343915344
20
149.20000000000002
10
-159.92592592592592
20
149.20000000000002
10
-159.92592592592592
20
152.40000000000003
10
-149.64497354497354
20
152.40000000000003
10
-149.64497354497354
20
149.20000000000002
10
-137.07936507936509
20
149.20000000000002
10
-137.07936507936509
20
152.40000000000003
10
-126.79841269841269
20
152.40000000000003
10
-126.79841269841269
20
149.20000000000002
10
-114.23280423280424
20
149.20000000000002
10
-114.23280423280424
20
152.40000000000003
10
-103.95185185185184
20
152.40000000000003
10
-103.95185185185184
20
149.20000000000002
10
-91.386243386243393
20
149.20000000000002
10
-91.386243386243393
20
152.40000000000003
10
-81.105291005290994
20
152.40000000000003
10
-81.105291005290994
20
149.20000000000002
10
-68.539682539682545
20
149.20000000000002
10
-68.539682539682545
20
152.40000000000003
10
-58.258730158730145
20
152.40000000000003
10
-58.258730158730145
20
149.20000000000002
10
-45.693121693121697
20
149.20000000000002
10
-45.693121693121697
20
152.40000000000003
10
-35.412169312169297
20
152.40000000000003
10
-35.412169312169297
20
149.20000000000002
10
-22.846560846560848
20
149.20000000000002
10
-22.846560846560848
20
152.40000000000003
10
-12.565608465608449
20
152.40000000000003
0
ENDSEC
0
SECTION
2
OBJECTS
0
DICTIONARY
5
C
100
AcDbDictionary
3
ACAD_GROUP
350
D
3
ACAD_MLINESTYLE
350
17
0
DICTIONARY
5
D
100
AcDbDictionary
0
DICTIONARY
5
1A
330
C
100
AcDbDictionary
0
DICTIONARY
5
17
100
AcDbDictionary
0
ENDSEC
0
EOF
