0
SECTION
2
HEADER
9
$INSUNITS
70
4
9
$ACADVER
1
AC1014
9
$HANDSEED
5
FFFF
0
ENDSEC
0
SECTION
2
TABLES
0
TABLE
2
VPORT
5
8
100
AcDbSymbolTable
0
ENDTAB
0
TABLE
2
LTYPE
5
5
100
AcDbSymbolTable
0
LTYPE
5
14
100
AcDbSymbolTableRecord
100
AcDbLinetypeTableRecord
2
BYBLOCK
70
0
0
LTYPE
5
15
100
AcDbSymbolTableRecord
100
AcDbLinetypeTableRecord
2
BYLAYER
70
0
0
ENDTAB
0
TABLE
2
LAYER
5
2
100
AcDbSymbolTable
70
2
0
LAYER
5
50
100
AcDbSymbolTableRecord
100
AcDbLayerTableRecord
2
0
70
0
6
CONTINUOUS
0
ENDTAB
0
TABLE
2
STYLE
5
3
100
AcDbSymbolTable
70
1
0
STYLE
5
11
100
AcDbSymbolTableRecord
100
AcDbTextStyleTableRecord
2
STANDARD
70
0
0
ENDTAB
0
TABLE
2
VIEW
5
6
100
AcDbSymbolTable
70
0
0
ENDTAB
0
TABLE
2
UCS
5
7
100
AcDbSymbolTable
70
0
0
ENDTAB
0
TABLE
2
APPID
5
9
100
AcDbSymbolTable
70
2
0
APPID
5
12
100
AcDbSymbolTableRecord
100
AcDbRegAppTableRecord
2
ACAD
70
0
0
ENDTAB
0
TABLE
2
DIMSTYLE
5
A
100
AcDbSymbolTable
70
1
0
ENDTAB
0
TABLE
2
BLOCK_RECORD
5
1
100
AcDbSymbolTable
70
1
0
BLOCK_RECORD
5
1F
100
AcDbSymbolTableRecord
100
AcDbBlockTableRecord
2
*MODEL_SPACE
0
BLOCK_RECORD
5
1B
100
AcDbSymbolTableRecord
100
AcDbBlockTableRecord
2
*PAPER_SPACE
0
ENDTAB
0
ENDSEC
0
SECTION
2
BLOCKS
0
BLOCK
5
20
100
AcDbEntity
100
AcDbBlockBegin
2
*MODEL_SPACE
0
ENDBLK
5
21
100
AcDbEntity
100
AcDbBlockEnd
0
BLOCK
5
1C
100
AcDbEntity
100
AcDbBlockBegin
2
*PAPER_SPACE
0
ENDBLK
5
1D
100
AcDbEntity
100
AcDbBlockEnd
0
ENDSEC
0
SECTION
2
ENTITIES
0
LWPOLYLINE
5
100
100
AcDbEntity
8
0
100
AcDbPolyline
90
164
70
1
43
0.0
10
-292.10000000000002
20
-3.2000000000000006
10
0
20
-3.2000000000000006
10
0
20
-12.565608465608449
10
-3.2000000000000006
20
-12.565608465608449
10
-3.2000000000000006
20
-22.846560846560848
10
0
20
-22.846560846560848
10
0
20
-35.412169312169297
10
-3.2000000000000006
20
-35.412169312169297
10
-3.2000000000000006
20
-45.693121693121697
10
0
20
-45.693121693121697
10
0
20
-58.258730158730145
10
-3.2000000000000006
20
-58.258730158730145
10
-3.2000000000000006
20
-68.539682539682545
10
0
20
-68.539682539682545
10
0
20
-81.105291005290994
10
-3.2000000000000006
20
-81.105291005290994
10
-3.2000000000000006
20
-91.386243386243393
10
0
20
-91.386243386243393
10
0
20
-103.95185185185184
10
-3.2000000000000006
20
-103.95185185185184
10
-3.2000000000000006
20
-114.23280423280424
10
0
20
-114.23280423280424
10
0
20
-126.79841269841269
10
-3.2000000000000006
20
-126.79841269841269
10
-3.2000000000000006
20
-137.07936507936509
10
0
20
-137.07936507936509
10
0
20
-149.64497354497354
10
-3.2000000000000006
20
-149.64497354497354
10
-3.2000000000000006
20
-159.92592592592592
10
0
20
-159.92592592592592
10
0
20
-172.4915343915344
10
-3.2000000000000006
20
-172.4915343915344
10
-3.2000000000000006
20
-182.77248677248679
10
0
20
-182.77248677248679
10
0
20
-195.33809523809524
10
-3.2000000000000006
20
-195.33809523809524
10
-3.2000000000000006
20
-205.61904761904765
10
0
20
-205.61904761904765
10
0
20
-215.90000000000003
10
-6.4911111111111408
20
-215.90000000000003
10
-6.4911111111111408
20
-212.70000000000005
10
-12.982222222222251
20
-212.70000000000005
10
-12.982222222222251
20
-215.90000000000003
10
-19.473333333333397
20
-215.90000000000003
10
-19.473333333333397
20
-212.70000000000005
10
-25.964444444444506
20
-212.70000000000005
10
-25.964444444444506
20
-215.90000000000003
10
-32.455555555555613
20
-215.90000000000003
10
-32.455555555555613
20
-212.70000000000005
10
-38.946666666666722
20
-212.70000000000005
10
-38.946666666666722
20
-215.90000000000003
10
-45.437777777777839
20
-215.90000000000003
10
-45.437777777777839
20
-212.70000000000005
10
-51.928888888888949
20
-212.70000000000005
10
-51.928888888888949
20
-215.90000000000003
10
-58.420000000000059
20
-215.90000000000003
10
-58.420000000000059
20
-212.70000000000005
10
-64.911111111111168
20
-212.70000000000005
10
-64.911111111111168
20
-215.90000000000003
10
-71.402222222222278
20
-215.90000000000003
10
-71.402222222222278
20
-212.70000000000005
10
-77.893333333333388
20
-212.70000000000005
10
-77.893333333333388
20
-215.90000000000003
10
-84.384444444444497
20
-215.90000000000003
10
-84.384444444444497
20
-212.70000000000005
10
-90.875555555555607
20
-212.70000000000005
10
-90.875555555555607
20
-215.90000000000003
10
-97.366666666666717
20
-215.90000000000003
10
-97.366666666666717
20
-212.70000000000005
10
-103.85777777777783
20
-212.70000000000005
10
-103.85777777777783
20
-215.90000000000003
10
-110.34888888888894
20
-215.90000000000003
10
-110.34888888888894
20
-212.70000000000005
10
-116.84000000000005
20
-212.70000000000005
10
-116.84000000000005
20
-215.90000000000003
10
-123.33111111111117
20
-215.90000000000003
10
-123.33111111111117
20
-212.70000000000005
10
-129.82222222222228
20
-212.70000000000005
10
-129.82222222222228
20
-215.90000000000003
10
-136.31333333333339
20
-215.90000000000003
10
-136.31333333333339
20
-212.70000000000005
10
-142.8044444444445
20
-212.70000000000005
10
-142.8044444444445
20
-215.90000000000003
10
-149.29555555555564
20
-215.90000000000003
10
-149.29555555555564
20
-212.70000000000005
10
-155.78666666666675
20
-212.70000000000005
10
-155.78666666666675
20
-215.90000000000003
10
-162.27777777777786
20
-215.90000000000003
10
-162.27777777777786
20
-212.70000000000005
10
-168.76888888888897
20
-212.70000000000005
10
-168.76888888888897
20
-215.90000000000003
10
-175.26000000000008
20
-215.90000000000003
10
-175.26000000000008
20
-212.70000000000005
10
-181.75111111111119
20
-212.70000000000005
10
-181.75111111111119
20
-215.90000000000003
10
-188.2422222222223
20
-215.90000000000003
10
-188.2422222222223
20
-212.70000000000005
10
-194.73333333333341
20
-212.70000000000005
10
-194.73333333333341
20
-215.90000000000003
10
-201.22444444444454
20
-215.90000000000003
10
-201.22444444444454
20
-212.70000000000005
10
-207.71555555555565
20
-212.70000000000005
10
-207.71555555555565
20
-215.90000000000003
10
-214.20666666666676
20
-215.90000000000003
10
-214.20666666666676
20
-212.70000000000005
10
-220.69777777777787
20
-212.70000000000005
10
-220.69777777777787
20
-215.90000000000003
10
-227.18888888888898
20
-215.90000000000003
10
-227.18888888888898
20
-212.70000000000005
10
-233.68000000000009
20
-212.70000000000005
10
-233.68000000000009
20
-215.90000000000003
10
-240.1711111111112
20
-215.90000000000003
10
-240.1711111111112
20
-212.70000000000005
10
-246.66222222222231
20
-212.70000000000005
10
-246.66222222222231
20
-215.90000000000003
10
-253.15333333333342
20
-215.90000000000003
10
-253.15333333333342
20
-212.70000000000005
10
-259.6444444444445
20
-212.70000000000005
10
-259.6444444444445
20
-215.90000000000003
10
-266.13555555555564
20
-215.90000000000003
10
-266.13555555555564
20
-212.70000000000005
10
-272.62666666666678
20
-212.70000000000005
10
-272.62666666666678
20
-215.90000000000003
10
-279.11777777777786
20
-215.90000000000003
10
-279.11777777777786
20
-212.70000000000005
10
-285.60888888888894
20
-212.70000000000005
10
-285.60888888888894
20
-215.90000000000003
10
-292.10000000000002
20
-215.90000000000003
10
-292.10000000000002
20
-205.61904761904765
10
-288.90000000000003
20
-205.61904761904765
10
-288.90000000000003
20
-195.33809523809524
10
-292.10000000000002
20
-195.33809523809524
10
-292.10000000000002
20
-182.77248677248679
10
-288.90000000000003
20
-182.77248677248679
10
-288.90000000000003
20
-172.4915343915344
10
-292.10000000000002
20
-172.4915343915344
10
-292.10000000000002
20
-159.92592592592592
10
-288.90000000000003
20
-159.92592592592592
10
-288.90000000000003
20
-149.64497354497354
10
-292.10000000000002
20
-149.64497354497354
10
-292.10000000000002
20
-137.07936507936509
10
-288.90000000000003
20
-137.07936507936509
10
-288.90000000000003
20
-126.79841269841269
10
-292.10000000000002
20
-126.79841269841269
10
-292.10000000000002
20
-114.23280423280424
10
-288.90000000000003
20
-114.23280423280424
10
-288.90000000000003
20
-103.95185185185184
10
-292.10000000000002
20
-103.95185185185184
10
-292.10000000000002
20
-91.386243386243393
10
-288.90000000000003
20
-91.386243386243393
10
-288.90000000000003
20
-81.105291005290994
10
-292.10000000000002
20
-81.105291005290994
10
-292.10000000000002
20
-68.539682539682545
10
-288.90000000000003
20
-68.539682539682545
10
-288.90000000000003
20
-58.258730158730145
10
-292.10000000000002
20
-58.258730158730145
10
-292.10000000000002
20
-45.693121693121697
10
-288.90000000000003
20
-45.693121693121697
10
-288.90000000000003
20
-35.412169312169297
10
-292.10000000000002
20
-35.412169312169297
10
-292.10000000000002
20
-22.846560846560848
10
-288.90000000000003
20
-22.846560846560848
10
-288.90000000000003
20
-12.565608465608449
10
-292.10000000000002
20
-12.565608465608449
0
ENDSEC
0
SECTION
2
OBJECTS
0
DICTIONARY
5
C
100
AcDbDictionary
3
ACAD_GROUP
350
D
3
ACAD_MLINESTYLE
350
17
0
DICTIONARY
5
D
100
AcDbDictionary
0
DICTIONARY
5
1A
330
C
100
AcDbDictionary
0
DICTIONARY
5
17
100
AcDbDictionary
0
ENDSEC
0
EOF
